<?xml version="1.0" encoding="iso-8859-1"?>
<!-- Generator: Adobe Illustrator 18.0.0, SVG Export Plug-In . SVG Version: 6.00 Build 0)  -->
<!DOCTYPE svg PUBLIC "-//W3C//DTD SVG 1.1//EN" "http://www.w3.org/Graphics/SVG/1.1/DTD/svg11.dtd">
<svg version="1.1" id="Capa_1" xmlns="http://www.w3.org/2000/svg" xmlns:xlink="http://www.w3.org/1999/xlink" x="0px" y="0px"
	 viewBox="0 0 497 497" style="enable-background:new 0 0 497 497;" xml:space="preserve">
<g>
	<circle cx="248.877" cy="239.321" r="23.078"/>
	<circle cx="314.773" cy="239.321" r="23.078"/>
	<circle cx="182.981" cy="239.321" r="23.078"/>
	<path d="M363.037,0H133.752C112.335,0,95,17.022,95,38.437v420.095C95,479.945,112.335,497,133.752,497h229.285
		C384.451,497,402,479.945,402,458.532V38.437C402,17.022,384.451,0,363.037,0z M248.393,475.383
		c-13.536,0-24.494-10.968-24.494-24.496c0-13.527,10.958-24.496,24.494-24.496c13.519,0,24.498,10.968,24.498,24.496
		C272.891,464.415,261.911,475.383,248.393,475.383z M358,401.543c0,4.472-3.182,8.457-7.654,8.457H146.443
		c-4.475,0-8.443-3.985-8.443-8.457V49.012c0-4.472,3.969-8.012,8.443-8.012h203.902c4.473,0,7.654,3.541,7.654,8.012V401.543z"/>
</g>
<g>
</g>
<g>
</g>
<g>
</g>
<g>
</g>
<g>
</g>
<g>
</g>
<g>
</g>
<g>
</g>
<g>
</g>
<g>
</g>
<g>
</g>
<g>
</g>
<g>
</g>
<g>
</g>
<g>
</g>
</svg>
